<svg xmlns="http://www.w3.org/2000/svg" xmlns:xlink="http://www.w3.org/1999/xlink" viewBox="0 0 121.6 60.85"><defs><style>.cls-1{fill:url(#linear-gradient);}</style><linearGradient id="linear-gradient" x1="-22.13" y1="-27.67" x2="153.38" y2="95.2" gradientUnits="userSpaceOnUse"><stop offset="0.1" stop-color="#ffd200"/><stop offset="0.17" stop-color="#fcbe0a"/><stop offset="0.26" stop-color="#faad13"/><stop offset="0.36" stop-color="#f8a019"/><stop offset="0.5" stop-color="#f7991d"/><stop offset="0.82" stop-color="#f7971e"/></linearGradient></defs><g id="Layer_2" data-name="Layer 2"><g id="Layer_2-2" data-name="Layer 2"><path class="cls-1" d="M121.6,42.52c0,3.55-14.89,2.52-14.89,2.52,0,19.63-40,15.43-40,15.43V45.08H54.89V60.47s-40,4.2-40-15.43c0,0-14.84,1-14.89-2.52,13.19-5.93,17.89-19.44,17.89-19.44h21v3.25l12.76-8.65a15.74,15.74,0,0,1,8.67-3.16,15.42,15.42,0,0,1,9.55,3.16L82.7,26.33V21.79H85v-.94H82.7V19.06H85V17.74H82.7V15c0-2.65,0-15,10.5-15s10.5,12.35,10.5,15v.8H93.2v1.13h10.5v1.82H93.2v1.47h10.5v1.63H93.2v.52h10.5V34.42S108.4,36.59,121.6,42.52Z"/></g></g></svg>