<svg xmlns="http://www.w3.org/2000/svg" viewBox="0 0 95.24 65.54"><defs><style>.cls-1{fill:none;stroke:#ee376e;stroke-miterlimit:10;}</style></defs><g id="Layer_2" data-name="Layer 2"><g id="Layer_2-2" data-name="Layer 2"><path class="cls-1" d="M3.57,46.44c.54.11,3.37.07,3.37.07h5.74v3.62l.07,4.42s.11,4.51,2.88,7.08C18.2,64,19.48,65,23.35,65s18.74,0,18.74,0V46.48H48V62.93s0,1.35.33,1.71S50,65,50,65l17.34,0s11.61.59,18.54-6.19c6.33-6.19,8.56-15.12,8.56-15.12H87.26V40.86h7.43V30.2H83.89V28.54H94.74V24.7H83.79V21.87H94.74V19.29h-11V16.41h11S96.07.5,84,.5C72.33.5,73,16.38,73,16.38V31.27L47.75,15.61a5.16,5.16,0,0,0-2.7-.87,4.31,4.31,0,0,0-2.33.58L32.8,21.57V20H15.17V30l-13,9.84A4,4,0,0,0,.51,43.07v0a3.52,3.52,0,0,0,1.87,2.79,6.57,6.57,0,0,0,1.19.53"/></g></g></svg>