<svg xmlns="http://www.w3.org/2000/svg" viewBox="0 0 107.28 54.01">
  <defs>
    <style>
      .cls-1 {
        fill: none;
        stroke: #ee376e;
        stroke-miterlimit: 10;
      }
    </style>
  </defs>
  <g id="Layer_2" data-name="Layer 2">
    <g id="Layer_2-2" data-name="Layer 2">
      <path class="cls-1"
        d="M4.17,38.2a8.31,8.31,0,0,1-1.42-.43A3.11,3.11,0,0,1,.51,35.48v0C.37,33.82,2.45,32.8,2.45,32.8L18,24.72V16.49H39.07v3.37l12.25-9.32a11.54,11.54,0,0,1,15.31-.9L87,25.74V13.5S85.52.5,97.26.5c11.56,0,9.34,13,9.34,13H99.87V15.9h6.79V18H99.93v2.32h6.73V23.5h-6.61v1.37h6.55v8.76h-2.51V36h2.68a15.26,15.26,0,0,1-7,12.81c-8.28,5.57-19.4,4.7-19.4,4.7l-16,0a6.64,6.64,0,0,1-2-.32c-.4-.3-.4-1.4-.4-1.4V38.27H54.9V53.51s-22.49,0-27.12,0-6.15-.83-9.22-2.8a7.76,7.76,0,0,1-3.44-5.81L15,41.23v-3H8.19s-3.38,0-4-.06" />
    </g>
  </g>
</svg>